<svg version="1.2" xmlns="http://www.w3.org/2000/svg" viewBox="0 0 400 600" width="400" height="600">
    <title>santa-hat</title>
    <g style="stroke-width:4;stroke-dasharray:none;stroke:#000;">
        <path id="hat" fill="#e50002" d="M204.118 12.581c44.053 5.207 82.098 34.575 106.744 70.256 17.4 30.59 22.988 65.894 29.743 99.936.014 15.957-38.856 3.35-24.646 21.315 6.183 15.237 20.596 24.822 28.022 39.538-6.987.815-15.66-16.406-22.091-23.504-3.622-7.03-18.154-20.231-16.55-21.579 11.614 9.198-13.416 9.044-19.587 11.984-16.88 3.894-33.656-1.806-49.346-7.434-37.115-9.539-76.32-8.59-113.69-1-19.084-1.921-39.751 5.175-51.412 20.892-17.044 10.712-35.029-13.422-26.779-29.176 6.322-19.46 18.591-36.724 22.114-57.139 16.003-50.888 49.584-99.949 100.238-120.913 11.936-3.975 24.803-4.91 37.24-3.176zM59.064 161.006l.381.762z" transform="matrix(1.07804 0 0 .99936 -10.658 8.588)"/>
        <path id="shadow" fill="#000" d="M204.498 58.618c20.966 16.414 44.98 30.07 60.258 52.558 20.108 23.59 35.078 50.952 50.856 77.464-.96 13.924-11.366-12.16-15.932-16.272-9.23-13.468-18.608-27.188-29.963-38.837-9.202-4.94-37.294-9.661-19.4-21.771 1.6-16.75-19.334-21.953-31.171-27.225-8.971-4.45-33.49-9.023-26.343-21.7 4.009-.599 9.838.586 11.695-4.217z" transform="matrix(1.07804 0 0 .99936 -10.658 8.588)"/>
        <path id="brim" fill="#eeeaef" d="M177.768 150.922c29.674 2.885 60.448-1.21 88.995 9.4 16.084 3.856 34.547 7.029 44.511 21.795 14.27 10.724 33.893-9.665 47.01 6.195 20.474 14.437 21.662 48.968.205 63.163-14.62 11.7-32.88 4.982-47.47-2.567-33.974-14.258-66.167-35.054-103.221-40.255-33.858-2.455-67.095 7.656-98.782 18.388-15.718 6.516-30.224 15.519-45.594 22.762-19.51-2.61-16.616-28.425-19.294-43.044-3.647-19.482 9.023-39.36 29.678-39.987 25.65-5.1 51.1-11.51 77.333-12.963 8.83-1.127 17.992-.892 26.628-2.887z" transform="matrix(1.07804 0 0 .99936 -10.658 8.588)"/>
        <path id="circle" fill="#eeeaef" d="M311.092 186.776c-19.434 5.846-17.201 30.171-19.476 46.24 2.168 18.528 23.749 24.482 39.56 23.018l.84.119.096.013" transform="matrix(1.07804 0 0 .99936 -10.658 8.588)"/>
    </g>
</svg>